<svg width="24" height="24" viewBox="0 0 24 24" fill="none" xmlns="http://www.w3.org/2000/svg">
<path d="M5.75977 11.0127C4.37988 11.0127 3.71191 10.3447 3.71191 8.92969V5.44922C3.71191 4.04297 4.37988 3.375 5.75977 3.375H9.29297C10.6816 3.375 11.3408 4.04297 11.3408 5.44922V8.92969C11.3408 10.3447 10.6816 11.0127 9.29297 11.0127H5.75977ZM14.707 11.0127C13.3271 11.0127 12.6592 10.3447 12.6592 8.92969V5.44922C12.6592 4.04297 13.3271 3.375 14.707 3.375H18.2402C19.6201 3.375 20.2881 4.04297 20.2881 5.44922V8.92969C20.2881 10.3447 19.6201 11.0127 18.2402 11.0127H14.707ZM5.75977 19.9512C4.37988 19.9512 3.71191 19.292 3.71191 17.877V14.3965C3.71191 12.9902 4.37988 12.3223 5.75977 12.3223H9.29297C10.6816 12.3223 11.3408 12.9902 11.3408 14.3965V17.877C11.3408 19.292 10.6816 19.9512 9.29297 19.9512H5.75977ZM14.707 19.9512C13.3271 19.9512 12.6592 19.292 12.6592 17.877V14.3965C12.6592 12.9902 13.3271 12.3223 14.707 12.3223H18.2402C19.6201 12.3223 20.2881 12.9902 20.2881 14.3965V17.877C20.2881 19.292 19.6201 19.9512 18.2402 19.9512H14.707Z" fill="#0A0019"/>
</svg>
