<svg width="119" height="30" viewBox="0 0 119 30" fill="none" xmlns="http://www.w3.org/2000/svg">
<path d="M103.796 29.1426C105.235 29.1426 106.402 27.9822 106.402 26.5508C106.402 25.1194 105.235 23.959 103.796 23.959C102.356 23.959 101.189 25.1194 101.189 26.5508C101.189 27.9822 102.356 29.1426 103.796 29.1426Z" fill="#FF7300"/>
<path d="M111.056 29.1426C112.495 29.1426 113.662 27.9822 113.662 26.5508C113.662 25.1194 112.495 23.959 111.056 23.959C109.616 23.959 108.449 25.1194 108.449 26.5508C108.449 27.9822 109.616 29.1426 111.056 29.1426Z" fill="#FF7300"/>
<path d="M116.829 6.39258H103.873C100.089 6.39258 97.2896 9.88672 98.1392 13.5536L100.224 22.6154H105.785L103.024 11.0194H116.829V6.41178V6.39258Z" fill="#7010DF"/>
<path d="M111.77 1.28516H113.836V22.5956H108.256V4.7793C108.256 2.84024 109.839 1.28516 111.77 1.28516Z" fill="#7010DF"/>
<path d="M10.6573 22.6154C8.91965 22.6154 7.37506 22.2698 6.04285 21.5787C4.71064 20.8875 3.64873 19.9276 2.87644 18.7181C2.10414 17.4894 1.7373 16.0879 1.7373 14.4944C1.7373 12.9009 2.10414 11.5378 2.85713 10.3283C3.61012 9.11878 4.6141 8.15885 5.9077 7.4485C7.20129 6.73815 8.64934 6.39258 10.2519 6.39258C11.8544 6.39258 13.2252 6.71895 14.4416 7.3909C15.6579 8.06285 16.6233 8.98439 17.3184 10.1555C18.0134 11.3266 18.361 12.6705 18.361 14.168C18.361 14.4944 18.361 14.8016 18.3223 15.1279C18.2837 15.4543 18.2258 15.8383 18.11 16.2606L4.36311 16.3182V12.7665L15.9089 12.6705L13.4183 14.2256C13.399 13.3617 13.2638 12.6513 13.0321 12.0946C12.8004 11.5378 12.4529 11.1154 12.0088 10.8083C11.5648 10.5203 11.0048 10.3667 10.3291 10.3667C9.65333 10.3667 9.01618 10.5395 8.51419 10.8658C8.0122 11.2114 7.60675 11.6722 7.33644 12.2865C7.06614 12.9009 6.93099 13.6304 6.93099 14.5136C6.93099 15.3967 7.08545 16.1647 7.37506 16.779C7.66467 17.3934 8.08943 17.8733 8.64934 18.1805C9.20926 18.4877 9.88502 18.6605 10.6959 18.6605C11.4682 18.6605 12.144 18.5261 12.7232 18.2765C13.3024 18.0269 13.8237 17.6237 14.3064 17.1054L17.2025 19.9852C16.4302 20.8491 15.5035 21.5019 14.4222 21.9434C13.3217 22.385 12.0861 22.6154 10.7152 22.6154H10.6573Z" fill="#FF7300"/>
<path d="M44.4259 22.6157C43.4799 22.6157 42.5531 22.4813 41.6264 22.2317C40.7189 21.9821 39.8501 21.6365 39.0778 21.2142C38.2862 20.7918 37.6297 20.2926 37.0698 19.7167L40.0625 16.6641C40.5645 17.1825 41.1823 17.5856 41.8774 17.8928C42.5917 18.1808 43.3254 18.3344 44.1363 18.3344C44.5997 18.3344 44.9472 18.2768 45.1982 18.1424C45.4492 18.008 45.5651 17.8352 45.5651 17.6048C45.5651 17.2785 45.3913 17.0097 45.0438 16.8369C44.6962 16.6641 44.2522 16.5105 43.6923 16.3569C43.1323 16.2225 42.5531 16.0498 41.9353 15.8578C41.3174 15.6658 40.7382 15.397 40.159 15.0514C39.5991 14.7251 39.1357 14.2451 38.7882 13.6307C38.4407 13.0164 38.2669 12.2484 38.2669 11.3077C38.2669 10.367 38.5372 9.46464 39.0778 8.7159C39.6184 7.96715 40.3714 7.39119 41.3368 6.94963C42.3021 6.50806 43.4413 6.29688 44.7542 6.29688C46.0671 6.29688 47.3413 6.52726 48.5384 6.96883C49.7355 7.41039 50.7008 8.10154 51.4345 8.98468L48.4033 12.0373C47.9013 11.4805 47.3413 11.0773 46.7235 10.8661C46.1057 10.655 45.5651 10.5398 45.0438 10.5398C44.5225 10.5398 44.2136 10.6166 44.0012 10.7509C43.7888 10.8853 43.6923 11.0773 43.6923 11.3077C43.6923 11.5765 43.866 11.8069 44.2136 11.9605C44.5611 12.1332 45.0052 12.2868 45.5651 12.4212C46.125 12.5556 46.7042 12.7284 47.3027 12.9396C47.9013 13.1508 48.4805 13.4387 49.0404 13.8035C49.6003 14.1683 50.0444 14.6483 50.3919 15.2626C50.7394 15.877 50.9132 16.6449 50.9132 17.624C50.9132 19.1599 50.3147 20.3502 49.1369 21.2526C47.9592 22.1549 46.376 22.5773 44.4066 22.5773L44.4259 22.6157Z" fill="#FF7300"/>
<path d="M73.8114 22.6157C72.151 22.6157 70.6643 22.2701 69.3321 21.579C67.9999 20.8878 66.9573 19.9279 66.185 18.6992C65.4127 17.4705 65.0459 16.0882 65.0459 14.5523C65.0459 13.0164 65.432 11.5957 66.2043 10.367C66.9766 9.13831 68.0385 8.17838 69.3514 7.46803C70.6837 6.75768 72.1896 6.41211 73.8694 6.41211C75.0857 6.41211 76.1863 6.6041 77.1902 7.00727C78.1942 7.41044 79.1017 8.00559 79.9319 8.81193L76.4179 12.3061C76.0897 11.9797 75.7229 11.7493 75.3174 11.5957C74.8927 11.4421 74.41 11.3653 73.8694 11.3653C73.2708 11.3653 72.7302 11.4997 72.2669 11.7685C71.8035 12.0373 71.398 12.4021 71.1277 12.8628C70.8574 13.3236 70.703 13.8804 70.703 14.5331C70.703 15.1859 70.8381 15.7234 71.1277 16.2034C71.4173 16.6833 71.8035 17.0481 72.2669 17.3361C72.7302 17.6241 73.2901 17.7393 73.8694 17.7393C74.4486 17.7393 74.9699 17.6433 75.3947 17.4513C75.8194 17.2593 76.1863 16.9905 76.5145 16.6258L80.0477 20.1199C79.1789 20.9646 78.2328 21.5982 77.2288 22.0206C76.2249 22.4429 75.0857 22.6541 73.8114 22.6541V22.6157Z" fill="#7010DF"/>
<path d="M87.3846 22.5962C85.9365 22.5962 84.6429 22.2506 83.5038 21.5403C82.3647 20.8299 81.4958 19.8892 80.8394 18.6605C80.2022 17.4318 79.874 16.0495 79.874 14.5136C79.874 12.9777 80.2022 11.5378 80.8394 10.3091C81.4765 9.08038 82.3647 8.12045 83.5038 7.4293C84.6429 6.73815 85.9172 6.39258 87.3846 6.39258C88.3693 6.39258 89.2574 6.56537 90.0683 6.91094C90.8792 7.25651 91.5357 7.75568 92.0763 8.38923C92.5976 9.02278 92.9065 9.75233 93.0223 10.5587V18.3917C92.9065 19.2172 92.5976 19.9468 92.0763 20.5803C91.555 21.2139 90.8792 21.6938 90.0683 22.0586C89.2574 22.4234 88.3693 22.5962 87.3846 22.5962ZM88.5816 17.6813C89.5084 17.6813 90.2614 17.3742 90.8406 16.779C91.4198 16.1839 91.6901 15.3967 91.6901 14.456C91.6901 13.8416 91.555 13.2849 91.304 12.8049C91.053 12.3249 90.6862 11.9602 90.2228 11.6722C89.7594 11.3842 89.2188 11.2498 88.6203 11.2498C88.0217 11.2498 87.4811 11.3842 87.0177 11.6722C86.5544 11.9602 86.1875 12.3249 85.9172 12.8241C85.6469 13.3233 85.5118 13.8608 85.5118 14.456C85.5118 15.0511 85.6469 15.6271 85.8979 16.1263C86.1489 16.6062 86.5158 16.9902 86.9984 17.2782C87.4811 17.5662 88.0024 17.7005 88.5816 17.7005V17.6813ZM91.5164 22.5962V18.1613L92.3273 14.2832L91.5164 10.4627V6.39258H97.0769V22.5962H91.5164Z" fill="#7010DF"/>
<path d="M26.5667 22.5962C25.1187 22.5962 23.8251 22.2506 22.6859 21.5403C21.5468 20.8299 20.678 19.8892 20.0215 18.6605C19.3844 17.4318 19.0562 16.0495 19.0562 14.5136C19.0562 12.9777 19.3844 11.5378 20.0215 10.3091C20.6587 9.08038 21.5468 8.12045 22.6859 7.4293C23.8251 6.73815 25.0994 6.39258 26.5667 6.39258C27.5514 6.39258 28.4395 6.56537 29.2504 6.91094C30.0614 7.25651 30.7178 7.75568 31.2584 8.38923C31.7797 9.02278 32.0886 9.75233 32.2045 10.5587V18.3917C32.0886 19.2172 31.7797 19.9468 31.2584 20.5803C30.7371 21.2139 30.0614 21.6938 29.2504 22.0586C28.4395 22.4234 27.5514 22.5962 26.5667 22.5962ZM27.7638 17.6813C28.6905 17.6813 29.4435 17.3742 30.0227 16.779C30.602 16.1839 30.8723 15.3967 30.8723 14.456C30.8723 13.8416 30.7371 13.2849 30.4861 12.8049C30.2351 12.3249 29.8683 11.9602 29.4049 11.6722C28.9415 11.3842 28.4009 11.2498 27.8024 11.2498C27.2039 11.2498 26.6633 11.3842 26.1999 11.6722C25.7365 11.9602 25.3697 12.3249 25.0994 12.8241C24.8291 13.3233 24.6939 13.8608 24.6939 14.456C24.6939 15.0511 24.8291 15.6271 25.0801 16.1263C25.331 16.6062 25.6979 16.9902 26.1806 17.2782C26.6633 17.5662 27.1846 17.7005 27.7638 17.7005V17.6813ZM30.6985 22.5962V18.1613L31.5094 14.2832L30.6985 10.4627V6.39258H36.259V22.5962H30.6985Z" fill="#FF7300"/>
<path d="M66.6875 6.39258L58.173 28.7397H52.709L61.2042 6.39258H66.6875Z" fill="#FF7300"/>
<path d="M54.1181 22.6154L51.415 6.39258H56.8983L59.5821 22.6154H54.1181Z" fill="#FF7300"/>
</svg>
